<svg width="18" height="20" viewBox="0 0 18 20" fill="none" xmlns="http://www.w3.org/2000/svg">
<g clip-path="url(#clip0_207_1942)">
<path d="M15 9.5C15 13.2448 10.8457 17.1447 9.45075 18.3492C9.18378 18.55 8.81622 18.55 8.54925 18.3492C7.15425 17.1447 3 13.2448 3 9.5C3 6.18851 5.68851 3.5 9 3.5C12.3115 3.5 15 6.18851 15 9.5" stroke="#7C3AED" stroke-width="1.5" stroke-linecap="round" stroke-linejoin="round"/>
<path d="M6.75 9.5C6.75 10.7418 7.75819 11.75 9 11.75C10.2418 11.75 11.25 10.7418 11.25 9.5C11.25 8.25819 10.2418 7.25 9 7.25C7.75819 7.25 6.75 8.25819 6.75 9.5V9.5" stroke="#7C3AED" stroke-width="1.5" stroke-linecap="round" stroke-linejoin="round"/>
</g>
<defs>
<clipPath id="clip0_207_1942">
<rect width="18" height="18" fill="white" transform="translate(0 2)"/>
</clipPath>
</defs>
</svg>
