<svg width="18" height="20" viewBox="0 0 18 20" fill="none" xmlns="http://www.w3.org/2000/svg">
<g clip-path="url(#clip0_207_1936)">
<path d="M10.374 14.426C10.6931 14.5725 11.0711 14.4781 11.2837 14.1987L11.55 13.85C11.8333 13.4723 12.2779 13.25 12.75 13.25H15C15.8279 13.25 16.5 13.9221 16.5 14.75V17C16.5 17.8279 15.8279 18.5 15 18.5C7.54915 18.5 1.5 12.4509 1.5 5C1.5 4.17213 2.17213 3.5 3 3.5H5.25C6.07787 3.5 6.75 4.17213 6.75 5V7.25C6.75 7.72214 6.52771 8.16672 6.15 8.45L5.799 8.71325C5.5151 8.93002 5.42348 9.31693 5.58 9.638C6.60501 11.7199 8.29082 13.4036 10.374 14.426" stroke="#7C3AED" stroke-width="1.5" stroke-linecap="round" stroke-linejoin="round"/>
</g>
<defs>
<clipPath id="clip0_207_1936">
<rect width="18" height="18" fill="white" transform="translate(0 2)"/>
</clipPath>
</defs>
</svg>
