<svg width="16" height="16" viewBox="0 0 16 16" fill="none" xmlns="http://www.w3.org/2000/svg">
<g clip-path="url(#clip0_233_2414)">
<path d="M8.55339 1.45325C8.20192 1.29293 7.7982 1.29293 7.44672 1.45325L1.73339 4.05325C1.49168 4.15983 1.33569 4.39908 1.33569 4.66325C1.33569 4.92741 1.49168 5.16667 1.73339 5.27325L7.45339 7.87991C7.80486 8.04023 8.20859 8.04023 8.56006 7.87991L14.2801 5.27991C14.5218 5.17333 14.6778 4.93408 14.6778 4.66991C14.6778 4.40574 14.5218 4.16649 14.2801 4.05991L8.55339 1.45325" stroke="#F8FAFC" stroke-width="1.33333" stroke-linecap="round" stroke-linejoin="round"/>
<path d="M1.33338 8C1.33273 8.26038 1.48374 8.49731 1.72004 8.60667L7.45338 11.2133C7.80296 11.3716 8.20379 11.3716 8.55338 11.2133L14.2734 8.61333C14.5145 8.50496 14.6688 8.26435 14.6667 8" stroke="#F8FAFC" stroke-width="1.33333" stroke-linecap="round" stroke-linejoin="round"/>
<path d="M1.33338 11.333C1.33273 11.5934 1.48374 11.8303 1.72004 11.9397L7.45338 14.5463C7.80296 14.7046 8.20379 14.7046 8.55338 14.5463L14.2734 11.9463C14.5145 11.838 14.6688 11.5974 14.6667 11.333" stroke="#F8FAFC" stroke-width="1.33333" stroke-linecap="round" stroke-linejoin="round"/>
</g>
<defs>
<clipPath id="clip0_233_2414">
<rect width="16" height="16" fill="white"/>
</clipPath>
</defs>
</svg>
