<svg width="442" height="104" viewBox="0 0 442 104" fill="none" xmlns="http://www.w3.org/2000/svg">
<path d="M30.6928 26.3697H42.9891V31.221H30.6928V26.3697ZM28.2431 19.6451H33.6227V41.7401L28.2431 39.5787V19.6451ZM23.1036 28.7233C23.9362 31.6693 25.0409 33.9108 26.4179 35.4478C27.8268 36.9529 29.4439 37.9936 31.2691 38.57C33.1264 39.1143 35.1438 39.3865 37.3213 39.3865C37.6415 39.3865 38.1698 39.3865 38.9063 39.3865C39.6428 39.3865 40.4594 39.3865 41.356 39.3865C42.2526 39.3865 43.1012 39.3865 43.9017 39.3865C44.7023 39.3545 45.3427 39.3385 45.823 39.3385C45.5989 39.7548 45.3587 40.2671 45.1025 40.8755C44.8784 41.516 44.6862 42.1564 44.5261 42.7968C44.366 43.4693 44.254 44.0457 44.1899 44.526H42.4607H36.7929C34.6474 44.526 32.6621 44.3179 30.8369 43.9016C29.0116 43.4853 27.3465 42.7488 25.8415 41.6921C24.3364 40.6674 22.9915 39.2264 21.8067 37.3692C20.6539 35.4799 19.6773 33.1103 18.8767 30.2603L23.1036 28.7233ZM22.239 -0.00019659L27.7147 0.912422C26.9142 5.04322 25.7134 8.85381 24.1123 12.3442C22.5432 15.8025 20.5739 18.6525 18.2043 20.894C17.9481 20.5417 17.5638 20.1255 17.0515 19.6451C16.5712 19.1328 16.0588 18.6364 15.5145 18.1561C14.9701 17.6438 14.4898 17.2435 14.0735 16.9553C16.251 15.098 18.0122 12.6964 19.3571 9.75042C20.702 6.7724 21.6626 3.52219 22.239 -0.00019659ZM35.1118 0.0478354L40.5394 0.720291C39.867 5.07524 38.7782 8.96588 37.2732 12.3922C35.8002 15.8185 33.8469 18.6204 31.4132 20.7979C31.125 20.4777 30.6928 20.1094 30.1164 19.6932C29.572 19.2449 29.0116 18.8126 28.4352 18.3963C27.8588 17.98 27.3625 17.6598 26.9462 17.4356C29.2838 15.6104 31.109 13.1928 32.4219 10.1827C33.7348 7.17267 34.6314 3.79438 35.1118 0.0478354ZM21.7587 10.8071L24.2564 6.82043C24.9609 7.26873 25.6974 7.78108 26.4659 8.35747C27.2664 8.90184 28.0189 9.46222 28.7234 10.0386C29.4599 10.583 30.0523 11.0793 30.5006 11.5276L27.8588 15.9947C27.4425 15.5143 26.8822 14.97 26.1777 14.3615C25.4732 13.7531 24.7207 13.1447 23.9202 12.5363C23.1516 11.8959 22.4311 11.3195 21.7587 10.8071ZM33.8149 10.9512L37.4173 7.63698C38.41 8.50157 39.4667 9.46222 40.5875 10.5189C41.7082 11.5757 42.7649 12.6324 43.7576 13.6891C44.7823 14.7138 45.5829 15.6424 46.1592 16.475L42.3166 20.3176C41.7723 19.453 41.0198 18.4763 40.0591 17.3876C39.0985 16.2989 38.0577 15.1941 36.937 14.0733C35.8483 12.9206 34.8075 11.8799 33.8149 10.9512ZM18.7326 22.7672L24.3044 23.1995C23.9522 28.0028 23.1837 32.2617 21.9989 35.9762C20.8461 39.6587 19.0208 42.6848 16.5231 45.0544C16.2349 44.7021 15.8187 44.2858 15.2743 43.8055C14.7619 43.3572 14.2176 42.8929 13.6412 42.4126C13.0968 41.9643 12.6005 41.612 12.1522 41.3559C14.4257 39.4025 16.0268 36.8408 16.9554 33.6706C17.9161 30.4685 18.5085 26.834 18.7326 22.7672ZM10.7592 10.3748L15.8027 12.2481C14.778 14.1694 13.5611 16.1067 12.1522 18.0601C10.7752 20.0134 9.30224 21.8546 7.73318 23.5838C6.16411 25.313 4.59505 26.818 3.02599 28.0989C2.86588 27.6826 2.59369 27.1382 2.20943 26.4658C1.85719 25.7933 1.47293 25.1208 1.05665 24.4484C0.67239 23.7439 0.320151 23.1835 -6.64148e-05 22.7672C1.34485 21.7426 2.67375 20.5738 3.98664 19.2609C5.33155 17.948 6.5804 16.539 7.73318 15.034C8.91798 13.497 9.92667 11.9439 10.7592 10.3748ZM9.89465 -0.00019659L14.9861 2.0652C13.9934 3.44214 12.8406 4.85109 11.5278 6.29207C10.2469 7.73305 8.91798 9.10998 7.54105 10.4229C6.16412 11.7358 4.80319 12.8725 3.45828 13.8332C3.20211 13.4489 2.88189 13.0006 2.49763 12.4883C2.14539 11.9759 1.77714 11.4636 1.39288 10.9512C1.04064 10.4069 0.720422 9.97457 0.432227 9.65435C1.58501 8.82179 2.7538 7.86114 3.93861 6.7724C5.15543 5.68366 6.27619 4.54689 7.30089 3.36208C8.3576 2.17728 9.22219 1.05652 9.89465 -0.00019659ZM6.77253 20.7499L11.6719 15.8506L12.1522 16.0427V45.1985H6.77253V20.7499ZM77.3324 23.1515H83.0963V42.5086H77.3324V23.1515ZM67.7739 21.0381H92.7508V25.9854H67.7739V21.0381ZM65.9006 39.0503H93.8076V44.0937H65.9006V39.0503ZM68.9267 29.9721H91.5981V34.8234H68.9267V29.9721ZM74.6426 6.67633V13.3048H85.8822V6.67633H74.6426ZM69.3109 1.82504H91.454V18.1561H69.3109V1.82504ZM56.15 4.51487H61.7218V45.1024H56.15V4.51487ZM49.2333 13.545H66.8613V18.8766H49.2333V13.545ZM56.4382 15.7065L59.8005 17.1474C59.3522 18.8766 58.8078 20.6698 58.1674 22.5271C57.527 24.3843 56.8225 26.2256 56.054 28.0508C55.2854 29.844 54.4689 31.5412 53.6043 33.1423C52.7397 34.7434 51.8431 36.1363 50.9145 37.3211C50.6263 36.4886 50.21 35.5599 49.6656 34.5352C49.1533 33.4785 48.6729 32.5819 48.2246 31.8454C49.0572 30.8848 49.8738 29.764 50.6743 28.4831C51.5069 27.1702 52.2914 25.7773 53.0279 24.3043C53.7644 22.8313 54.4208 21.3583 54.9972 19.8853C55.5736 18.4123 56.054 17.0193 56.4382 15.7065ZM63.5951 0.528161L67.4857 4.94716C65.8526 5.55557 64.0594 6.11595 62.1061 6.6283C60.1527 7.14065 58.1514 7.58895 56.102 7.97321C54.0846 8.32545 52.1473 8.62966 50.29 8.88583C50.162 8.2454 49.9378 7.5089 49.6176 6.67633C49.2974 5.81175 48.9772 5.07525 48.6569 4.46683C50.4181 4.17864 52.2113 3.84241 54.0366 3.45815C55.8938 3.04187 57.639 2.57755 59.2721 2.0652C60.9373 1.55286 62.3782 1.04051 63.5951 0.528161ZM61.6257 20.2215C61.9139 20.4457 62.3462 20.862 62.9226 21.4704C63.531 22.0468 64.1715 22.6872 64.8439 23.3917C65.5484 24.0961 66.1728 24.7526 66.7172 25.361C67.2616 25.9374 67.6618 26.3537 67.918 26.6099L64.6038 31.1729C64.3156 30.5645 63.9313 29.8761 63.451 29.1075C63.0027 28.339 62.5063 27.5385 61.962 26.7059C61.4496 25.8734 60.9373 25.0888 60.4249 24.3523C59.9126 23.5838 59.4643 22.9594 59.08 22.4791L61.6257 20.2215ZM129.592 3.16995L133.386 -0.00019659C134.123 0.480129 134.891 1.04051 135.692 1.68094C136.525 2.32138 137.293 2.96181 137.998 3.60225C138.734 4.24268 139.326 4.81907 139.775 5.33142L135.692 8.8378C135.308 8.26141 134.763 7.65299 134.059 7.01256C133.386 6.3401 132.65 5.66765 131.849 4.99519C131.081 4.32274 130.328 3.71432 129.592 3.16995ZM97.7462 8.21337H140.976V13.8332H97.7462V8.21337ZM99.5715 19.3089H120.37V24.8807H99.5715V19.3089ZM106.824 22.4791H112.588V38.7621H106.824V22.4791ZM97.7462 37.9936C99.6675 37.6734 101.925 37.3051 104.519 36.8888C107.145 36.4405 109.914 35.9602 112.828 35.4478C115.774 34.9355 118.704 34.4071 121.618 33.8628L122.003 39.0023C119.377 39.5787 116.719 40.155 114.029 40.7314C111.339 41.2758 108.746 41.8042 106.248 42.3165C103.75 42.8609 101.445 43.3572 99.3313 43.8055L97.7462 37.9936ZM121.378 0.191934H127.574C127.478 4.16263 127.526 8.03725 127.719 11.8158C127.943 15.5944 128.295 19.1328 128.775 22.431C129.256 25.7293 129.832 28.6272 130.504 31.1249C131.177 33.6226 131.913 35.5759 132.714 36.9849C133.547 38.3938 134.427 39.0983 135.356 39.0983C135.9 39.0983 136.3 38.4099 136.557 37.0329C136.845 35.656 137.053 33.4465 137.181 30.4044C137.853 31.0769 138.654 31.7333 139.583 32.3738C140.543 33.0142 141.424 33.4785 142.224 33.7667C141.968 36.8088 141.536 39.1624 140.928 40.8275C140.351 42.4606 139.567 43.5814 138.574 44.1898C137.613 44.8302 136.364 45.1504 134.827 45.1504C133.098 45.1504 131.561 44.558 130.216 43.3732C128.871 42.1884 127.703 40.5553 126.71 38.4739C125.717 36.3605 124.885 33.8788 124.212 31.0289C123.54 28.1789 122.995 25.0888 122.579 21.7586C122.163 18.3963 121.859 14.8899 121.666 11.2394C121.474 7.58895 121.378 3.90645 121.378 0.191934ZM145.202 1.77701H163.503V7.01256H145.202V1.77701ZM150.822 17.0994H162.11V39.2905H150.822V34.3431H157.115V22.0948H150.822V17.0994ZM150.438 4.5629L155.818 5.37945C155.337 8.8378 154.729 12.2321 153.992 15.5624C153.256 18.8606 152.311 21.9667 151.158 24.8807C150.038 27.7626 148.677 30.2924 147.076 32.4698C146.916 32.0215 146.643 31.4611 146.259 30.7887C145.907 30.0842 145.523 29.3797 145.106 28.6753C144.69 27.9708 144.306 27.4104 143.954 26.9941C145.202 25.2329 146.243 23.1675 147.076 20.7979C147.908 18.3963 148.581 15.8185 149.093 13.0647C149.637 10.3108 150.086 7.47687 150.438 4.5629ZM148.325 17.0994H153.272V43.037H148.325V17.0994ZM167.778 9.36616H186.991V13.8332H167.778V9.36616ZM167.778 16.6191H186.991V21.0861H167.778V16.6191ZM165.04 24.0161H185.79V29.0115H165.04V24.0161ZM174.983 4.4188H180.074V25.9854H174.983V4.4188ZM169.075 32.3738L172.821 31.8454C173.109 33.2223 173.334 34.7274 173.494 36.3605C173.654 37.9936 173.718 39.4025 173.686 40.5873L169.699 41.2118C169.763 39.9949 169.731 38.57 169.603 36.9369C169.507 35.2717 169.331 33.7507 169.075 32.3738ZM174.118 32.0856L177.576 31.1249C178.025 32.2777 178.425 33.5265 178.777 34.8715C179.161 36.2164 179.418 37.3852 179.546 38.3778L175.895 39.3865C175.767 38.4259 175.527 37.2571 175.175 35.8801C174.855 34.5032 174.502 33.2383 174.118 32.0856ZM178.873 31.1729L181.755 30.0202C182.364 30.8527 182.908 31.7974 183.388 32.8541C183.901 33.8788 184.269 34.7594 184.493 35.4959L181.467 36.8408C181.243 36.0723 180.891 35.1597 180.41 34.1029C179.93 33.0142 179.418 32.0375 178.873 31.1729ZM164.367 30.3564L168.546 31.4131C168.322 33.5265 167.97 35.64 167.49 37.7534C167.009 39.8348 166.225 41.58 165.136 42.989L161.197 40.7795C162.126 39.5626 162.83 38.0096 163.311 36.1203C163.823 34.231 164.175 32.3097 164.367 30.3564ZM165.04 1.77701H188.384V6.72436H170.275V26.6579H165.04V1.77701ZM184.061 24.0161H189.344C189.344 24.0161 189.328 24.2883 189.296 24.8326C189.296 25.345 189.28 25.7773 189.248 26.1295C189.12 29.812 188.944 32.8221 188.72 35.1597C188.528 37.4972 188.288 39.3065 187.999 40.5873C187.743 41.8362 187.407 42.7328 186.991 43.2772C186.542 43.8536 186.046 44.2698 185.502 44.526C184.989 44.7822 184.381 44.9583 183.677 45.0544C183.068 45.1504 182.3 45.1985 181.371 45.1985C180.442 45.2305 179.45 45.2305 178.393 45.1985C178.361 44.4299 178.217 43.5814 177.961 42.6527C177.704 41.7241 177.368 40.9236 176.952 40.2511C177.817 40.3472 178.617 40.4112 179.354 40.4432C180.09 40.4753 180.634 40.4913 180.987 40.4913C181.339 40.4913 181.611 40.4432 181.803 40.3472C182.027 40.2511 182.252 40.091 182.476 39.8668C182.764 39.5466 183.004 38.8742 183.196 37.8495C183.388 36.7928 183.548 35.2237 183.677 33.1423C183.837 31.0609 183.965 28.307 184.061 24.8807V24.0161ZM207.693 16.2348L236.897 12.3442L237.713 17.7719L208.509 21.7586L207.693 16.2348ZM225.753 3.07389L230.076 0.384062C230.909 1.12056 231.773 1.95313 232.67 2.88176C233.566 3.81039 234.399 4.73902 235.167 5.66765C235.936 6.56425 236.544 7.39682 236.993 8.16534L232.334 11.0953C231.949 10.3588 231.389 9.52627 230.652 8.59764C229.916 7.63698 229.115 6.67633 228.251 5.71568C227.418 4.75503 226.586 3.87443 225.753 3.07389ZM205.003 0.432097L210.527 2.2093C209.31 5.05923 207.869 7.89316 206.204 10.7111C204.571 13.529 202.793 16.1708 200.872 18.6364C198.983 21.1021 197.03 23.2636 195.012 25.1208C194.852 24.6405 194.58 24.0321 194.196 23.2956C193.811 22.5591 193.395 21.8226 192.947 21.0861C192.531 20.3496 192.146 19.7412 191.794 19.2609C193.555 17.7879 195.252 16.0427 196.885 14.0253C198.519 12.0079 200.04 9.84648 201.449 7.54092C202.858 5.20333 204.042 2.83373 205.003 0.432097ZM200.056 14.2174L205.916 8.30944L206.012 8.40551V45.0544H200.056V14.2174ZM216.675 0.768323H222.535C222.599 5.8918 222.823 10.679 223.207 15.1301C223.624 19.5491 224.2 23.4397 224.937 26.802C225.673 30.1643 226.586 32.8381 227.674 34.8234C228.763 36.7767 230.028 37.8495 231.469 38.0416C232.013 38.0736 232.446 37.4652 232.766 36.2164C233.086 34.9675 233.342 33.0142 233.534 30.3564C233.887 30.7407 234.367 31.1569 234.975 31.6052C235.584 32.0535 236.192 32.4698 236.801 32.8541C237.409 33.2063 237.889 33.4785 238.242 33.6706C237.825 36.7767 237.265 39.1624 236.56 40.8275C235.888 42.4926 235.135 43.6134 234.303 44.1898C233.47 44.7982 232.606 45.0704 231.709 45.0063C229.436 44.7822 227.482 43.9496 225.849 42.5086C224.216 41.0677 222.839 39.0663 221.718 36.5046C220.63 33.9428 219.733 30.8848 219.029 27.3303C218.356 23.7759 217.844 19.7732 217.491 15.3222C217.139 10.8392 216.867 5.98787 216.675 0.768323ZM244.198 4.99519H282.768V11.0473H244.198V4.99519ZM241.556 35.9762H285.458V41.7881H241.556V35.9762ZM259.952 8.30944H266.533V38.3298H259.952V8.30944ZM1.20075 61.1133H25.7454V66.2047H1.20075V61.1133ZM2.64173 83.9768H24.2084V89.1163H2.64173V83.9768ZM10.6151 79.2696H16.379V97.4259L10.6151 98.2905V79.2696ZM0.67239 96.3211C2.81785 96.097 5.26751 95.8408 8.02138 95.5526C10.8073 95.2644 13.7212 94.9442 16.7633 94.592C19.8054 94.2397 22.8154 93.8875 25.7934 93.5352L25.9375 98.8669C23.0876 99.2511 20.2056 99.6354 17.2917 100.02C14.3777 100.404 11.5758 100.756 8.88596 101.076C6.19614 101.429 3.76249 101.765 1.58501 102.085L0.67239 96.3211ZM1.10468 73.5057C2.96194 73.4416 5.07538 73.3936 7.44498 73.3616C9.81459 73.2975 12.3283 73.2335 14.9861 73.1694C17.6759 73.0734 20.3497 72.9773 23.0075 72.8812L22.8634 77.7806C20.3337 77.9086 17.788 78.0527 15.2263 78.2129C12.6645 78.3409 10.2149 78.453 7.87728 78.5491C5.53969 78.6451 3.39424 78.7412 1.44091 78.8373L1.10468 73.5057ZM15.8987 69.3268L20.1256 67.0693C21.0542 68.126 21.9668 69.2948 22.8634 70.5757C23.7921 71.8565 24.6246 73.1214 25.3611 74.3702C26.1297 75.6191 26.7221 76.7559 27.1383 77.7806L22.5752 80.3743C22.191 79.3496 21.6306 78.1968 20.8941 76.916C20.1896 75.6351 19.3891 74.3382 18.4925 73.0253C17.6279 71.6804 16.7633 70.4476 15.8987 69.3268ZM8.02138 64.2354L14.2656 65.4842C13.7212 66.8612 13.1609 68.2701 12.5845 69.7111C12.0081 71.12 11.4157 72.481 10.8073 73.7939C10.2309 75.0747 9.67049 76.2115 9.12612 77.2042L4.27483 75.9073C4.75516 74.8186 5.21947 73.6017 5.66778 72.2568C6.1481 70.8799 6.59641 69.5029 7.01269 68.126C7.46099 66.7171 7.79722 65.4202 8.02138 64.2354ZM27.5226 63.8991H33.0464V91.0856H27.5226V63.8991ZM38.426 59.3841H44.0938V96.2731C44.0938 97.9062 43.9017 99.1551 43.5175 100.02C43.1652 100.916 42.5088 101.605 41.5481 102.085C40.5554 102.533 39.2906 102.822 37.7535 102.95C36.2165 103.11 34.4233 103.19 32.3739 103.19C32.2778 102.357 32.0377 101.365 31.6534 100.212C31.3012 99.091 30.9169 98.1144 30.5006 97.2818C31.9416 97.3458 33.3025 97.3939 34.5834 97.4259C35.8963 97.4259 36.7929 97.4259 37.2732 97.4259C37.7215 97.3939 38.0257 97.2978 38.1858 97.1377C38.3459 96.9776 38.426 96.6894 38.426 96.2731V59.3841ZM55.1955 98.8669H48.4409L60.739 63.9341H68.5512L80.8663 98.8669H74.1117L64.7816 71.098H64.5086L55.1955 98.8669ZM55.4173 85.1701H73.8388V90.2531H55.4173V85.1701ZM91.7956 63.9341V98.8669H85.4675V63.9341H91.7956ZM131.854 96.7534H153.757V101.076H131.854V96.7534ZM129.26 59.7683H152.844V64.0913H133.871V103.19H129.26V59.7683ZM141.893 69.615V74.6584H145.879V69.615H141.893ZM137.714 66.2527H150.25V78.0207H137.714V66.2527ZM138.194 83.9287V90.9895H140.164V83.9287H138.194ZM135.36 80.5184H143.093V94.3518H135.36V80.5184ZM147.512 83.9287V90.9895H149.674V83.9287H147.512ZM144.583 80.5184H152.7V94.3518H144.583V80.5184ZM113.361 67.2614H126.522V71.4883H113.361V67.2614ZM113.361 74.4183H126.666V78.6932H113.361V74.4183ZM110.527 81.7192H125.466V86.0422H110.527V81.7192ZM117.972 62.5542H122.343V84.265H117.972V62.5542ZM119.702 88.4438L121.815 87.7713C122.295 88.732 122.744 89.7887 123.16 90.9415C123.576 92.0622 123.848 93.0389 123.977 93.8715L121.719 94.688C121.591 93.8555 121.335 92.8628 120.95 91.71C120.566 90.5252 120.15 89.4365 119.702 88.4438ZM116.772 88.8761L119.077 88.4438C119.461 89.6926 119.782 91.0536 120.038 92.5266C120.294 93.9675 120.454 95.2164 120.518 96.2731L118.069 96.7054C118.036 95.6807 117.892 94.4319 117.636 92.9589C117.412 91.4859 117.124 90.1249 116.772 88.8761ZM113.746 89.2123L116.195 88.9241C116.419 90.3651 116.563 91.9021 116.628 93.5352C116.692 95.1684 116.692 96.5933 116.628 97.8101L114.034 98.0983C114.13 96.9135 114.146 95.5046 114.082 93.8715C114.05 92.2063 113.938 90.6533 113.746 89.2123ZM110.239 88.2036L113.313 88.78C113.249 90.253 113.137 91.726 112.977 93.199C112.849 94.64 112.625 95.9849 112.305 97.2338C112.016 98.4826 111.568 99.5874 110.96 100.548L108.03 99.011C108.798 97.7621 109.343 96.177 109.663 94.2557C109.983 92.3024 110.175 90.285 110.239 88.2036ZM110.527 59.8164H127.339V64.2834H115.042V84.2169H110.527V59.8164ZM123.4 81.7192H127.915C127.915 81.7192 127.915 81.9594 127.915 82.4397C127.915 82.888 127.899 83.2563 127.867 83.5445C127.771 87.5472 127.659 90.7814 127.531 93.2471C127.435 95.6807 127.275 97.538 127.051 98.8188C126.858 100.1 126.57 100.996 126.186 101.509C125.802 102.053 125.401 102.437 124.985 102.661C124.569 102.886 124.057 103.046 123.448 103.142C123 103.238 122.407 103.286 121.671 103.286C120.934 103.318 120.166 103.334 119.365 103.334C119.333 102.661 119.205 101.909 118.981 101.076C118.757 100.276 118.501 99.5874 118.213 99.011C118.853 99.075 119.413 99.107 119.894 99.107C120.374 99.139 120.774 99.1551 121.095 99.1551C121.351 99.1551 121.575 99.123 121.767 99.059C121.959 98.995 122.135 98.8348 122.295 98.5787C122.488 98.2585 122.648 97.57 122.776 96.5133C122.936 95.4245 123.064 93.7594 123.16 91.5179C123.256 89.2764 123.336 86.2823 123.4 82.5358V81.7192ZM157.936 89.1163H180.367V93.199H157.936V89.1163ZM156.879 66.2527H180.895V70.4316H156.879V66.2527ZM166.389 62.8905H171.625V97.3298H166.389V62.8905ZM156.591 96.7534C158.608 96.6253 160.914 96.4652 163.507 96.2731C166.101 96.081 168.839 95.8728 171.721 95.6487C174.635 95.3925 177.533 95.1363 180.415 94.8802L180.463 99.2511C177.741 99.5393 174.987 99.8275 172.201 100.116C169.447 100.404 166.79 100.66 164.228 100.884C161.698 101.14 159.377 101.381 157.263 101.605L156.591 96.7534ZM162.691 81.4791V83.6405H175.371V81.4791H162.691ZM162.691 75.9073V78.0688H175.371V75.9073H162.691ZM158.128 72.3048H180.127V87.243H158.128V72.3048ZM177.821 58.3274L180.319 62.6023C178.301 63.0185 176.028 63.3868 173.498 63.707C171 63.9952 168.439 64.2354 165.813 64.4275C163.187 64.5876 160.673 64.6997 158.272 64.7637C158.176 64.1553 158 63.4669 157.743 62.6983C157.519 61.8978 157.263 61.2093 156.975 60.6329C158.768 60.5369 160.609 60.4248 162.499 60.2967C164.388 60.1366 166.245 59.9605 168.07 59.7683C169.928 59.5762 171.673 59.3681 173.306 59.1439C174.971 58.8877 176.476 58.6156 177.821 58.3274ZM180.847 68.9426H197.514V74.2262H180.847V68.9426ZM195.161 68.9426H200.685C200.685 68.9426 200.685 69.1027 200.685 69.4229C200.685 69.7431 200.685 70.1114 200.685 70.5276C200.685 70.9119 200.685 71.2321 200.685 71.4883C200.556 76.4196 200.428 80.6145 200.3 84.0728C200.172 87.4992 200.028 90.3331 199.868 92.5746C199.74 94.7841 199.532 96.5133 199.244 97.7621C198.987 99.011 198.667 99.9076 198.283 100.452C197.739 101.252 197.162 101.813 196.554 102.133C195.977 102.485 195.289 102.741 194.488 102.902C193.752 103.03 192.855 103.094 191.799 103.094C190.742 103.126 189.637 103.126 188.484 103.094C188.452 102.293 188.276 101.365 187.956 100.308C187.668 99.2511 187.299 98.3385 186.851 97.57C187.876 97.6661 188.821 97.7301 189.685 97.7621C190.55 97.7941 191.206 97.8101 191.654 97.8101C192.039 97.8101 192.359 97.7461 192.615 97.618C192.871 97.4899 193.111 97.2818 193.336 96.9936C193.592 96.6093 193.816 95.8728 194.008 94.7841C194.2 93.6633 194.36 92.0783 194.488 90.0289C194.648 87.9475 194.777 85.2736 194.873 82.0074C195.001 78.7412 195.097 74.7865 195.161 70.1434V68.9426ZM185.458 58.8557H190.982C190.982 62.9545 190.934 66.8451 190.838 70.5276C190.774 74.2101 190.566 77.6845 190.213 80.9507C189.893 84.1849 189.333 87.1949 188.532 89.9808C187.764 92.7347 186.675 95.2484 185.266 97.522C183.857 99.7955 182.048 101.797 179.838 103.526C179.55 103.046 179.166 102.533 178.686 101.989C178.237 101.445 177.757 100.916 177.245 100.404C176.764 99.9236 176.284 99.5233 175.804 99.2031C177.821 97.6661 179.454 95.9049 180.703 93.9195C181.952 91.9021 182.913 89.6766 183.585 87.243C184.257 84.7773 184.722 82.0875 184.978 79.1735C185.234 76.2275 185.378 73.0734 185.41 69.7111C185.442 66.3168 185.458 62.6983 185.458 58.8557ZM210.051 65.8685H224.797V98.1944H210.051V93.151H219.609V70.8639H210.051V65.8685ZM206.689 65.8685H211.924V101.749H206.689V65.8685ZM209.859 78.6932H222.107V83.6886H209.859V78.6932ZM213.557 58.0392L219.802 58.9518C219.289 60.5849 218.729 62.202 218.12 63.8031C217.544 65.4042 217.016 66.7651 216.535 67.8858L211.924 66.8291C212.148 65.9966 212.356 65.0679 212.549 64.0432C212.773 63.0185 212.981 61.9778 213.173 60.9211C213.365 59.8644 213.493 58.9038 213.557 58.0392ZM231.137 65.4842H245.211V70.7678H231.137V65.4842ZM243.193 65.4842H248.525C248.525 65.4842 248.525 65.6603 248.525 66.0126C248.525 66.3328 248.525 66.701 248.525 67.1173C248.525 67.5336 248.509 67.8538 248.477 68.078C248.349 73.4897 248.189 78.0848 247.997 81.8633C247.837 85.6099 247.628 88.716 247.372 91.1817C247.148 93.6153 246.876 95.5206 246.556 96.8975C246.235 98.2745 245.819 99.2831 245.307 99.9236C244.666 100.852 243.978 101.493 243.241 101.845C242.505 102.197 241.656 102.453 240.696 102.613C239.767 102.741 238.614 102.79 237.237 102.758C235.892 102.758 234.516 102.741 233.107 102.709C233.075 101.909 232.882 100.964 232.53 99.8755C232.178 98.8188 231.746 97.8902 231.233 97.0897C232.77 97.2177 234.195 97.2978 235.508 97.3298C236.853 97.3618 237.83 97.3779 238.438 97.3779C238.918 97.3779 239.303 97.3298 239.591 97.2338C239.911 97.1057 240.215 96.8815 240.504 96.5613C240.92 96.145 241.256 95.2964 241.512 94.0156C241.8 92.7027 242.041 90.8614 242.233 88.4918C242.425 86.1222 242.601 83.1282 242.761 79.5097C242.921 75.8913 243.065 71.5844 243.193 66.589V65.4842ZM231.281 58.0872L236.853 59.3841C236.245 61.7217 235.492 64.0593 234.596 66.3968C233.731 68.7344 232.77 70.9439 231.714 73.0253C230.689 75.0747 229.632 76.8679 228.543 78.405C228.223 78.0848 227.759 77.7165 227.151 77.3002C226.574 76.8519 225.982 76.4196 225.373 76.0034C224.797 75.5871 224.285 75.2669 223.836 75.0427C224.893 73.6658 225.886 72.0807 226.814 70.2875C227.775 68.4622 228.624 66.5089 229.36 64.4275C230.129 62.3141 230.769 60.2006 231.281 58.0872ZM228.928 79.3656L233.443 76.8199C234.243 77.9086 235.092 79.1095 235.989 80.4224C236.885 81.7352 237.734 83.0161 238.534 84.265C239.335 85.5138 239.991 86.6186 240.504 87.5792L235.604 90.5572C235.156 89.5646 234.548 88.4278 233.779 87.1469C233.043 85.866 232.242 84.5532 231.377 83.2082C230.545 81.8313 229.728 80.5504 228.928 79.3656ZM269.755 64.9078H296.606V70.2394H269.755V64.9078ZM270.572 76.0034H291.13V81.1909H270.572V76.0034ZM280.082 58.0392H285.798V78.8373H280.082V58.0392ZM276.816 80.1342C278.577 84.5852 281.267 88.3958 284.886 91.5659C288.504 94.704 293.035 96.9296 298.479 98.2424C298.063 98.6587 297.614 99.1551 297.134 99.7315C296.654 100.308 296.205 100.9 295.789 101.509C295.405 102.149 295.069 102.725 294.78 103.238C289.016 101.541 284.261 98.8669 280.515 95.2164C276.8 91.5659 273.838 87.0348 271.629 81.6232L276.816 80.1342ZM290.505 76.0034H291.61L292.571 75.8112L296.269 77.3002C295.309 80.8546 293.996 84.0248 292.331 86.8107C290.698 89.5966 288.744 92.0302 286.471 94.1116C284.229 96.1931 281.716 97.9703 278.93 99.4433C276.176 100.916 273.214 102.117 270.044 103.046C269.851 102.565 269.579 101.989 269.227 101.317C268.875 100.676 268.491 100.036 268.074 99.3952C267.69 98.7868 267.322 98.2745 266.97 97.8582C269.851 97.1857 272.557 96.2411 275.087 95.0243C277.649 93.8074 279.954 92.3184 282.004 90.5572C284.053 88.796 285.798 86.7787 287.239 84.5051C288.712 82.1996 289.801 79.6698 290.505 76.916V76.0034ZM252.512 82.4397C253.921 82.1515 255.522 81.8153 257.315 81.431C259.108 81.0148 260.981 80.5665 262.935 80.0861C264.92 79.5738 266.873 79.0774 268.795 78.5971L269.515 83.8807C266.889 84.6172 264.2 85.3537 261.446 86.0902C258.724 86.7947 256.242 87.4191 254.001 87.9635L252.512 82.4397ZM253.136 67.2134H269.131V72.545H253.136V67.2134ZM258.708 58.0392H264.376V96.8015C264.376 98.1784 264.216 99.2511 263.895 100.02C263.607 100.82 263.047 101.445 262.214 101.893C261.414 102.309 260.421 102.581 259.236 102.709C258.051 102.838 256.594 102.902 254.865 102.902C254.769 102.165 254.561 101.285 254.241 100.26C253.921 99.2671 253.584 98.4026 253.232 97.6661C254.193 97.6981 255.105 97.7141 255.97 97.7141C256.867 97.7141 257.475 97.7141 257.795 97.7141C258.404 97.7141 258.708 97.3939 258.708 96.7534V58.0392ZM314.378 78.2129L318.989 78.8853C318.861 81.1268 318.637 83.3363 318.316 85.5138C318.028 87.6913 317.66 89.7407 317.212 91.662C316.795 93.5833 316.267 95.2804 315.627 96.7534C315.338 96.4973 314.954 96.1931 314.474 95.8408C314.025 95.4886 313.545 95.1523 313.033 94.8321C312.552 94.4799 312.136 94.2237 311.784 94.0636C312.36 92.7507 312.809 91.2457 313.129 89.5485C313.481 87.8514 313.753 86.0262 313.945 84.0728C314.17 82.1195 314.314 80.1662 314.378 78.2129ZM313.945 68.2701H331.91V73.6017H313.945V68.2701ZM320.334 58.8077H325.713V102.421H320.334V58.8077ZM326.626 79.1255L330.805 78.357C331.157 79.862 331.477 81.4791 331.765 83.2082C332.054 84.9054 332.294 86.5705 332.486 88.2036C332.71 89.8367 332.87 91.3097 332.966 92.6226L328.499 93.5352C328.467 92.2224 328.355 90.7494 328.163 89.1163C327.971 87.4511 327.747 85.754 327.491 84.0248C327.234 82.2636 326.946 80.6305 326.626 79.1255ZM333.591 60.6329H345.07V65.7244H333.591V60.6329ZM332.438 74.2262H345.839V79.3656H332.438V74.2262ZM326.05 60.9211L329.844 59.3361C330.485 60.3607 331.125 61.4975 331.765 62.7464C332.406 63.9632 332.854 65.0039 333.11 65.8685L329.172 67.6937C328.884 66.7651 328.435 65.6764 327.827 64.4275C327.25 63.1466 326.658 61.9778 326.05 60.9211ZM336.617 75.7152H342.092V96.9456C342.092 98.2905 341.948 99.3792 341.66 100.212C341.404 101.044 340.844 101.685 339.979 102.133C339.146 102.549 338.138 102.822 336.953 102.95C335.768 103.078 334.359 103.142 332.726 103.142C332.694 102.341 332.518 101.413 332.198 100.356C331.91 99.2992 331.573 98.3545 331.189 97.522C332.182 97.554 333.11 97.586 333.975 97.618C334.872 97.618 335.48 97.618 335.8 97.618C336.088 97.618 336.297 97.57 336.425 97.4739C336.553 97.3458 336.617 97.1377 336.617 96.8495V75.7152ZM308.47 58.0392L313.657 59.9605C312.793 61.3694 311.8 62.7784 310.679 64.1873C309.558 65.5963 308.358 66.9412 307.077 68.2221C305.828 69.5029 304.579 70.6237 303.33 71.5844C303.106 71.2001 302.802 70.7358 302.418 70.1914C302.065 69.647 301.697 69.1187 301.313 68.6063C300.961 68.062 300.64 67.6297 300.352 67.3095C301.377 66.5089 302.402 65.5963 303.426 64.5716C304.483 63.5149 305.444 62.4261 306.308 61.3054C307.205 60.1846 307.925 59.0959 308.47 58.0392ZM305.828 78.6451L310.343 74.1301L311.111 74.4183V103.19H305.828V78.6451ZM309.574 68.2221L314.666 69.9512C313.769 72.0006 312.681 74.066 311.4 76.1475C310.119 78.1968 308.758 80.1342 307.317 81.9594C305.876 83.7526 304.403 85.3377 302.898 86.7146C302.738 86.2983 302.466 85.754 302.081 85.0815C301.729 84.377 301.345 83.6886 300.929 83.0161C300.512 82.3437 300.144 81.7993 299.824 81.383C301.713 79.7819 303.522 77.8126 305.251 75.475C307.013 73.1374 308.454 70.7198 309.574 68.2221ZM349.441 82.1996H371.44V87.243H349.441V82.1996ZM357.511 84.7453L361.354 86.6666C360.553 88.4598 359.576 90.3171 358.424 92.2384C357.303 94.1277 356.07 95.9209 354.725 97.618C353.38 99.2831 351.987 100.676 350.546 101.797C350.29 100.964 349.906 99.9876 349.393 98.8669C348.881 97.7781 348.417 96.8655 348 96.129C349.249 95.2644 350.482 94.1917 351.699 92.9108C352.916 91.63 354.037 90.285 355.061 88.8761C356.086 87.4351 356.903 86.0582 357.511 84.7453ZM362.698 87.1949C363.179 87.4511 363.867 87.8994 364.764 88.5399C365.66 89.1483 366.605 89.8207 367.598 90.5572C368.622 91.2617 369.551 91.9342 370.384 92.5746C371.216 93.215 371.809 93.6793 372.161 93.9675L368.799 98.6747C368.318 98.0663 367.694 97.3618 366.925 96.5613C366.189 95.7608 365.404 94.9282 364.572 94.0636C363.739 93.199 362.923 92.3825 362.122 91.6139C361.322 90.8134 360.633 90.157 360.057 89.6446L362.698 87.1949ZM379.126 58.0872L384.409 58.9998C383.192 61.4975 381.639 63.8831 379.75 66.1567C377.893 68.3982 375.555 70.4636 372.737 72.3529C372.353 71.7765 371.793 71.12 371.056 70.3835C370.32 69.647 369.663 69.1027 369.087 68.7504C371.584 67.2774 373.666 65.5963 375.331 63.707C376.996 61.7857 378.261 59.9124 379.126 58.0872ZM379.99 61.4015H388.684V65.8204H376.916L379.99 61.4015ZM387.291 61.4015H388.3L389.309 61.2093L392.863 62.6023C391.902 66.1887 390.493 69.2628 388.636 71.8245C386.779 74.3863 384.585 76.5317 382.056 78.2609C379.526 79.958 376.724 81.335 373.65 82.3917C373.33 81.7833 372.881 81.0948 372.305 80.3263C371.729 79.5257 371.184 78.8853 370.672 78.405C373.33 77.6365 375.763 76.5157 377.973 75.0427C380.214 73.5377 382.136 71.7124 383.737 69.567C385.37 67.4215 386.555 64.9879 387.291 62.266V61.4015ZM374.514 69.2788L378.357 66.4449C379.062 66.8932 379.782 67.4055 380.519 67.9819C381.287 68.5583 382.008 69.1347 382.68 69.7111C383.352 70.2875 383.897 70.8318 384.313 71.3442L380.278 74.4183C379.894 73.9059 379.382 73.3616 378.741 72.7852C378.101 72.1768 377.412 71.5683 376.676 70.9599C375.939 70.3195 375.219 69.7591 374.514 69.2788ZM380.759 77.3002L386.138 78.2609C384.793 80.8546 383.048 83.3043 380.903 85.6099C378.789 87.8834 376.1 89.9328 372.833 91.758C372.609 91.3097 372.289 90.8454 371.873 90.3651C371.488 89.8848 371.072 89.4205 370.624 88.9722C370.208 88.5238 369.807 88.1716 369.423 87.9154C371.344 86.9228 373.041 85.85 374.514 84.6973C375.987 83.5124 377.236 82.2956 378.261 81.0468C379.318 79.7659 380.15 78.5171 380.759 77.3002ZM380.23 81.1428H389.789V85.802H376.868L380.23 81.1428ZM388.444 81.1428H389.549L390.557 80.9987L394.112 82.2476C393.087 86.2503 391.55 89.6286 389.501 92.3825C387.451 95.1363 384.986 97.3939 382.104 99.1551C379.222 100.916 375.987 102.293 372.401 103.286C372.113 102.581 371.681 101.765 371.104 100.836C370.56 99.9076 370.015 99.1711 369.471 98.6267C371.841 98.0823 374.034 97.3458 376.052 96.4172C378.101 95.4566 379.942 94.2878 381.575 92.9108C383.24 91.5339 384.649 89.9488 385.802 88.1556C386.987 86.3304 387.868 84.281 388.444 82.0074V81.1428ZM374.707 89.5966L378.693 86.6186C379.398 87.0989 380.134 87.6753 380.903 88.3477C381.703 88.9882 382.456 89.6286 383.16 90.269C383.865 90.8774 384.425 91.4698 384.841 92.0462L380.663 95.3125C380.278 94.7361 379.75 94.1116 379.078 93.4392C378.405 92.7667 377.685 92.0943 376.916 91.4218C376.18 90.7494 375.443 90.1409 374.707 89.5966ZM355.397 71.7765V74.6584H366.157V71.7765H355.397ZM355.397 64.5716V67.4536H366.157V64.5716H355.397ZM350.69 60.0085H371.056V79.2696H350.69V60.0085ZM358.376 62.1219H362.843V76.6758H363.323V103.142H357.943V76.6758H358.376V62.1219ZM423.268 58.7116H429.079V103.19H423.268V58.7116ZM412.556 73.2655H440.031V78.5971H412.556V73.2655ZM410.587 85.0335H442V90.3651H410.587V85.0335ZM412.364 62.266L417.215 60.4408C417.792 61.4975 418.336 62.6343 418.849 63.8511C419.393 65.0359 419.873 66.2047 420.29 67.3575C420.738 68.5103 421.042 69.551 421.202 70.4796L416.015 72.545C415.855 71.6484 415.582 70.6077 415.198 69.4229C414.846 68.2381 414.414 67.0213 413.901 65.7724C413.421 64.5236 412.909 63.3548 412.364 62.266ZM435.084 60.1046L440.992 62.1219C440.447 63.3388 439.871 64.5716 439.262 65.8204C438.654 67.0373 438.046 68.2061 437.437 69.3268C436.861 70.4476 436.316 71.4563 435.804 72.3529L431.097 70.4796C431.577 69.551 432.057 68.4783 432.538 67.2614C433.05 66.0446 433.53 64.8118 433.979 63.5629C434.459 62.3141 434.827 61.1613 435.084 60.1046ZM407.561 58.1833L412.892 59.9124C411.804 62.6343 410.507 65.3561 409.002 68.078C407.529 70.7678 405.928 73.3295 404.199 75.7632C402.501 78.1648 400.74 80.2783 398.915 82.1035C398.755 81.6232 398.499 81.0148 398.146 80.2783C397.794 79.5418 397.41 78.7892 396.994 78.0207C396.577 77.2522 396.209 76.6438 395.889 76.1955C397.426 74.7225 398.915 73.0253 400.356 71.104C401.829 69.1827 403.174 67.1173 404.391 64.9078C405.608 62.6983 406.664 60.4568 407.561 58.1833ZM402.902 71.4403L408.377 65.9645V66.0126V103.046H402.902V71.4403Z" fill="url(#paint0_linear_112_1745)"/>
<defs>
<linearGradient id="paint0_linear_112_1745" x1="-34.7917" y1="-5.20862" x2="595.636" y2="166.908" gradientUnits="userSpaceOnUse">
<stop stop-color="#3CB4D9"/>
<stop offset="0.447115" stop-color="white"/>
<stop offset="1" stop-color="#5255EE"/>
</linearGradient>
</defs>
</svg>
