<svg width="20" height="20" viewBox="0 0 20 20" fill="none" xmlns="http://www.w3.org/2000/svg">
<path d="M8.33331 11.6674V17.5008H11.6666V11.6674C11.6666 10.747 12.4128 10.0008 13.3333 10.0008C14.2538 10.0008 15 10.747 15 11.6674V17.5008H18.3333V11.6674C18.3333 8.90601 16.0947 6.76074 13.3333 6.76074C10.5719 6.76074 8.33331 8.90601 8.33331 11.6674Z" stroke="white" stroke-width="1.66667" stroke-linecap="round" stroke-linejoin="round"/>
<path d="M5.00002 17.5V7.50002H1.66669V17.5H5.00002Z" stroke="white" stroke-width="1.66667" stroke-linecap="round" stroke-linejoin="round"/>
<path d="M1.66669 3.33366C1.66669 4.25352 2.4135 5.00033 3.33335 5.00033C4.25321 5.00033 5.00002 4.25352 5.00002 3.33366C5.00002 2.4138 4.25321 1.66699 3.33335 1.66699C2.4135 1.66699 1.66669 2.4138 1.66669 3.33366H1.66669" stroke="white" stroke-width="1.66667" stroke-linecap="round" stroke-linejoin="round"/>
</svg>
