<svg width="48" height="48" viewBox="0 0 48 48" fill="none" xmlns="http://www.w3.org/2000/svg">
<rect width="48" height="48" rx="12" fill="white" fill-opacity="0.05"/>
<rect x="0.5" y="0.5" width="47" height="47" rx="11.5" stroke="black" stroke-opacity="0.08"/>
<path d="M32 22C32 26.993 26.461 32.193 24.601 33.799C24.245 34.0667 23.755 34.0667 23.399 33.799C21.539 32.193 16 26.993 16 22C16 17.5847 19.5847 14 24 14C28.4153 14 32 17.5847 32 22" stroke="#F8FAFC" stroke-width="2" stroke-linecap="round" stroke-linejoin="round"/>
<path d="M21 22C21 23.6557 22.3443 25 24 25C25.6557 25 27 23.6557 27 22C27 20.3443 25.6557 19 24 19C22.3443 19 21 20.3443 21 22V22" stroke="#F8FAFC" stroke-width="2" stroke-linecap="round" stroke-linejoin="round"/>
</svg>
