<svg width="21" height="8" viewBox="0 0 21 8" fill="none" xmlns="http://www.w3.org/2000/svg">
<path d="M0.5 3.18164C0.223858 3.18164 0 3.4055 0 3.68164C0 3.95778 0.223858 4.18164 0.5 4.18164V3.68164V3.18164ZM20.8536 4.03519C21.0488 3.83993 21.0488 3.52335 20.8536 3.32809L17.6716 0.146107C17.4763 -0.0491555 17.1597 -0.0491555 16.9645 0.146107C16.7692 0.341369 16.7692 0.657951 16.9645 0.853214L19.7929 3.68164L16.9645 6.51007C16.7692 6.70533 16.7692 7.02191 16.9645 7.21717C17.1597 7.41244 17.4763 7.41244 17.6716 7.21717L20.8536 4.03519ZM0.5 3.68164V4.18164H20.5V3.68164V3.18164H0.5V3.68164Z" fill="white"/>
</svg>
